<svg xmlns="http://www.w3.org/2000/svg" width="32" height="32" fill="none" viewBox="0 0 32 32"><circle cx="16" cy="16" r="16" fill="#008583"/><path fill="url(#paint0_linear)" d="M23.9707 17.1501C23.9112 17.0075 23.7724 16.9144 23.6183 16.9144H19.4398V7.38134C19.4398 7.17085 19.2689 7 19.0584 7H12.9572C12.7467 7 12.5759 7.17085 12.5759 7.38134V16.9145H8.38133C8.22729 16.9145 8.08848 17.0075 8.02899 17.1494C7.97025 17.292 8.00228 17.456 8.11136 17.565L15.7188 25.1976C15.7905 25.2693 15.8873 25.3098 15.9888 25.3098C16.0902 25.3098 16.1871 25.2693 16.2587 25.1984L23.8883 17.5658C23.9974 17.4567 24.0302 17.2927 23.9707 17.1501Z"/><defs><linearGradient id="paint0_linear" x1="16" x2="16" y1="7" y2="25.31" gradientUnits="userSpaceOnUse"><stop stop-color="#F7A813"/><stop offset=".422" stop-color="#FAA70B"/><stop offset="1" stop-color="#FFA700"/></linearGradient></defs></svg>